<svg xmlns="http://www.w3.org/2000/svg" viewBox="0 0 128 128"><path fill="#0e1017" d="m19.87 53.137.035.002a.92.92 0 0 0-.919.578L14.067 65.55a.93.93 0 0 0 .506 1.243l.006.002.008.004a1 1 0 0 0 .391.052h5.75a.92.92 0 0 0 .875-.578l2.523-5.994h7.438l-.037-.002a.92.92 0 0 0 .919-.576l2.157-5.254a.925.925 0 0 0-.508-1.236.9.9 0 0 0-.339-.074h-.002zm-16.69.004a.92.92 0 0 0-.921.578l-2.18 5.256a.927.927 0 0 0 .51 1.23.9.9 0 0 0 .344.07h6.56L1.979 73.558a.925.925 0 0 0 .515 1.235.9.9 0 0 0 .342.07h14.59l-.036-.002a.92.92 0 0 0 .923-.587l2.205-5.318.002-.006a.925.925 0 0 0-.55-1.194.9.9 0 0 0-.33-.072h-7.473L17.76 54.45v-.002a.927.927 0 0 0-.85-1.306h-.002zm16.71.989h13.773l-2.12 5.157H24.09a.92.92 0 0 0-.868.581l-2.522 5.99h-5.688Zm-16.728.003h13.656L11.22 67.374l-.003.01a1 1 0 0 0-.055.388.923.923 0 0 0 .917.905h7.479l-2.151 5.194H2.922l5.523-13.3c.26-.592-.2-1.293-.847-1.288H1.026Zm39.193 1.597a.89.89 0 0 0-.886.886v3.221a.89.89 0 0 0 .886.886h4.192v10.649c.002.482.404.88.886.88h3.942a.89.89 0 0 0 .885-.88V60.723h4.198a.89.89 0 0 0 .882-.886v-3.22a.89.89 0 0 0-.882-.887h-14.1Zm17.315 0a.89.89 0 0 0-.886.886v14.756a.89.89 0 0 0 .886.88h11.59c.48-.002.88-.4.882-.88v-3.095a.894.894 0 0 0-.88-.88h-6.891v-1.286h3.698a.893.893 0 0 0 .882-.882v-3.055a.89.89 0 0 0-.882-.885h-3.698v-.694h6.723a.893.893 0 0 0 .886-.888v-3.091a.89.89 0 0 0-.888-.886zm14.952 0a.89.89 0 0 0-.882.886v14.772c0 .481.4.884.882.886h3.354a.89.89 0 0 0 .886-.888v-.004l-.099-6.715 4.97 7.095.011.012c.24.298.595.479.977.498l.011.002h2.743a.893.893 0 0 0 .882-.888v-14.77a.89.89 0 0 0-.882-.886h-3.351a.89.89 0 0 0-.888.886v.004l.097 6.213-4.676-6.599-.014-.017a1.37 1.37 0 0 0-.975-.487h-.013zm16.925 0a.89.89 0 0 0-.882.886V59.6c.002.48.401.88.882.882h2.726l2.69-.033-1.769 1.97-.002.003c-.143.163-.37.428-.515.6l-4.1 4.892-.007.01c-.209.277-.33.61-.349.957l-.002.014v2.478a.89.89 0 0 0 .888.88h12.28a.89.89 0 0 0 .88-.88v-2.985a.89.89 0 0 0-.88-.88h-3.21l-2.673.031 1.768-1.971c.148-.166.374-.428.515-.593l.002-.002 4.093-4.9.008-.01c.208-.278.33-.613.347-.96v-2.487a.89.89 0 0 0-.887-.886H91.549Zm15.523 0a.89.89 0 0 0-.885.886v14.762a.89.89 0 0 0 .885.882h3.94c.482 0 .884-.4.886-.882V56.616a.89.89 0 0 0-.888-.886zm7.638 0a.89.89 0 0 0-.886.886v14.741a.893.893 0 0 0 .886.882h3.463a.89.89 0 0 0 .88-.882V66.99h.913l.638 1.328 1.589 3.287.006.012c.197.356.566.585.973.604l.011.002h4.051l-.138-.02a.71.71 0 0 0 .77-.26v-.003a.71.71 0 0 0 .017-.81l.027.047-2.331-4.485-.415-.79c.071-.076.322-.34.706-.83a5.74 5.74 0 0 0 1.32-3.669v-.002a5.656 5.656 0 0 0-4.828-5.624h-.01l-.01-.002q-.273-.03-.547-.045zm-72.246.993h13.886v3.008H52.15a.893.893 0 0 0-.882.881V71.26H47.54V60.612a.893.893 0 0 0-.887-.881h-4.19zm17.314 0h11.212v2.88h-6.962a.66.66 0 0 0-.647.635v1.396a.66.66 0 0 0 .647.647h3.932v2.837h-3.943a.664.664 0 0 0-.636.646v1.969a.66.66 0 0 0 .647.657h7.125v2.87H59.776Zm14.956 0h2.884a.38.38 0 0 1 .265.132l5.36 7.566c.045.072.093.14.181.213.089.073.28.19.527.112a.56.56 0 0 0 .369-.393c.03-.11.03-.189.027-.273l-.115-7.357h3.134V71.28H84.77a.34.34 0 0 1-.25-.126l-5.659-8.08a.8.8 0 0 0-.19-.218.56.56 0 0 0-.517-.107.57.57 0 0 0-.372.388.8.8 0 0 0-.03.288v.002l.117 7.853h-3.136zm16.925 0h11.588v2.337a.76.76 0 0 1-.15.41l-4.066 4.863c-.139.163-.362.42-.498.572h.002l-2.265 2.525a.8.8 0 0 0-.175.28.63.63 0 0 0 .014.457c.072.16.21.265.327.314a.8.8 0 0 0 .322.058h.002l3.425-.039h3.093v2.76H91.21v-2.326a.76.76 0 0 1 .151-.412v-.002l4.076-4.861c.134-.16.36-.424.496-.58l.004-.003 2.258-2.516.002-.002a.8.8 0 0 0 .178-.281.63.63 0 0 0-.015-.463c-.147-.321-.45-.368-.65-.368h-.001l-3.444.042h-2.609zm15.52 0h3.727v14.545h-3.727zm7.638 0h6.944q.228.013.455.037h.002a4.65 4.65 0 0 1 3.979 4.635v.006a4.74 4.74 0 0 1-1.091 3.04l-.004.003-.006.006c-.413.53-.744.876-.744.876-.083.084-.15.165-.15.165l-.025.033-.021.034a.56.56 0 0 0 0 .553v.002q.03.067.066.132l.477.907 2.122 4.08h-3.603a.18.18 0 0 1-.147-.092l-1.574-3.254-.696-1.448-.008-.015a.85.85 0 0 0-.674-.423l-.018-.002h-1.36a.7.7 0 0 0-.679.671l-.002.01v4.568h-3.244zm3.767 2.537-.006.002a.657.657 0 0 0-.635.635v3.074a.657.657 0 0 0 .635.636h2.283c.75 0 1.368-.173 1.791-.583s.58-.999.574-1.626c0-.569-.157-1.128-.56-1.532-.404-.404-1.005-.606-1.74-.606zm.351.992h1.99c.563 0 .864.14 1.04.316.175.176.27.436.27.831v.006c.006.467-.096.734-.273.905s-.501.304-1.1.304h-1.927z"/></svg>